<?xml version="1.0" encoding="UTF-8"?>
<svg id="Layer_2" xmlns="http://www.w3.org/2000/svg" baseProfile="tiny" version="1.2" viewBox="0 0 1124.43 553.14">
  <!-- Generator: Adobe Illustrator 29.6.1, SVG Export Plug-In . SVG Version: 2.1.1 Build 9)  -->
  <path d="M251.58,286.47h-25V33.04C226.58,14.84,241.4.01,259.63,0h.18c21.69,0,53.17,2.78,80.34,15.96,34.71,16.84,53.05,46.45,53.05,85.63,0,14.23-5.95,32.77-15.91,49.62-8.07,13.64-22.36,32.45-44.6,44.56-.3.16-.41.27-.42.28h0s-.77,1.81.85,8.07c8.87,34.33,17.07,49.37,58.27,49.37,4.52,0,27.86-.95,43.66-19.75,20.06-23.86,45.67-86.7,76.13-186.77,1.62-5.32,2.69-8.83,3.34-10.78,4.79-14.41,15.13-23.26,27.03-23.06,11.81.19,21.43,8.93,25.73,23.39,6.47,21.75,72.87,181.79,83.56,203,3.16,6.28,7.95,10.14,12.8,10.33,4.67.19,9.3-3.09,13.02-9.22,12.73-20.96,38.66-71.73,51.13-96.12,2.67-5.22,4.75-9.29,6-11.7,5.6-10.8,14.39-17.13,24.11-17.38,9.55-.22,18.35,5.38,24.21,15.41,8.46,14.48,14.94,28.63,21.2,42.31,21.68,47.35,37.35,81.56,115.08,81.56v25c-93.78,0-115.17-46.7-137.81-96.15-6.01-13.13-12.23-26.71-20.06-40.12-.83-1.43-1.56-2.23-2.03-2.67-.56.52-1.47,1.56-2.5,3.54-1.23,2.38-3.29,6.4-5.92,11.56-12.6,24.66-38.82,75.98-52.02,97.73-8.52,14.04-21.38,21.78-35.38,21.22-14.07-.55-26.83-9.55-34.14-24.06-11.33-22.48-78.27-183.86-85.19-207.11-.75-2.52-1.63-4.08-2.27-4.93-.77.86-1.87,2.52-2.81,5.34-.55,1.65-1.69,5.41-3.14,10.18-11.72,38.51-47.4,155.69-80.91,195.57-22.35,26.59-53.72,28.66-62.8,28.66-27.37,0-46.32-6.28-59.63-19.76-12.93-13.1-18.38-31.07-22.84-48.35-5.64-21.82,3.32-31.93,11.83-36.56,29.41-16.01,47.47-52.86,47.47-72.22,0-29.77-12.74-50.42-38.96-63.13-24.11-11.69-53.79-13.45-69.45-13.45h-.15c-4.45,0-8.07,3.61-8.07,8.04v253.42Z" fill="#fff"/>
  <g>
    <path d="M60.49,551.28h-9.94c-3.54,0-5.39-1.68-6.4-4.88l-12.81-39.59c-1.18-3.37-2.53-4.72-6.23-4.72h-1.69c-3.2,0-4.89,1.52-4.89,4.72v39.76c0,2.7-2.02,4.72-4.72,4.72H4.55c-2.86,0-4.55-2.02-4.55-4.72v-110.7c0-2.53,2.19-4.89,4.72-4.89h24.6c22.41,0,34.37,11.96,34.37,34.37,0,13.48-4.04,23.25-12.3,29.15-2.86,2.02-3.54,3.2-2.7,6.07l14.99,45.83c.84,2.53-.67,4.88-3.2,4.88ZM25.44,448.17h-2.02c-2.7,0-4.89,2.19-4.89,4.88v26.96c0,2.7,2.19,4.89,4.89,4.89h2.02c14.15,0,19.04-4.89,19.04-18.53s-4.89-18.2-19.04-18.2Z" fill="#fff"/>
    <path d="M103.78,551.28h-9.1c-2.36,0-4.72-2.02-4.72-4.55v-111.03c0-2.7,2.02-4.72,4.72-4.72h9.27c2.36,0,4.72,2.19,4.72,4.55v111.2c0,2.36-2.53,4.55-4.89,4.55Z" fill="#fff"/>
    <path d="M168.31,551.28h-24.94c-2.7,0-4.38-2.19-4.38-4.88v-110.53c0-2.19,2.02-4.89,4.38-4.89h24.94c23.59,0,34.88,12.13,34.88,37.57v44.99c0,25.78-11.29,37.74-34.88,37.74ZM184.49,473.78c0-19.04-4.72-25.61-17.69-25.61h-4.72c-2.7,0-4.55,1.85-4.55,4.55v77.5c0,2.19,2.02,3.88,4.04,3.88h5.22c12.97,0,17.69-6.74,17.69-25.44v-34.88Z" fill="#fff"/>
    <path d="M289.11,551.28h-9.1c-4.21,0-3.88-3.2-5.05-3.2-.67,0-1.52.67-2.19,1.18-4.04,2.7-8.43,3.88-14.15,3.88-11.12,0-20.39-5.39-24.94-14.15-4.04-7.92-5.22-15.16-5.22-32.18v-33.02c0-19.71,1.18-26.12,6.74-33.36,5.73-7.41,14.66-11.29,25.61-11.29,22.07,0,32.69,15.67,32.69,36.39,0,3.03-1.85,4.72-4.72,4.72h-9.1c-3.03,0-4.55-2.19-4.72-4.89-.51-12.3-5.39-18.87-14.32-18.87-10.11,0-13.65,6.4-13.65,23.76v36.56c0,21.57,3.88,28.98,14.66,28.98,9.6,0,13.65-7.08,13.65-23.25,0-3.2-1.18-5.73-4.89-5.73h-5.56c-2.86,0-4.72-2.19-4.72-4.89v-5.39c0-3.03,1.69-5.05,4.72-5.05h24.26c2.36,0,5.06,2.19,5.06,4.88v50.21c0,2.86-2.7,4.72-5.06,4.72Z" fill="#fff"/>
    <path d="M377.4,546.57c0,2.7-2.19,4.72-4.89,4.72h-44.82c-2.53,0-4.89-2.02-4.89-4.72v-110.7c0-2.19,2.7-4.89,4.89-4.89h44.82c3.2,0,4.72,1.69,4.72,4.89v7.58c0,2.86-1.52,4.72-4.55,4.72h-26.45c-3.37,0-4.89,2.36-4.89,5.56v21.23c0,2.86,2.19,4.72,4.89,4.72h22.41c3.03,0,4.72,2.02,4.72,4.89v7.58c0,2.53-2.19,4.72-4.72,4.72h-22.58c-2.7,0-4.55,2.36-4.55,5.05v27.3c0,2.86,1.52,4.89,4.55,4.89h26.45c2.53,0,4.89,2.53,4.89,5.05v7.41Z" fill="#fff"/>
    <path d="M451.86,551.28h-46.17c-2.53,0-4.72-2.02-4.72-4.72v-110.7c0-2.7,1.85-4.89,4.72-4.89h8.93c2.86,0,5.06,1.86,5.06,4.89v93.34c0,2.86,1.68,4.89,4.55,4.89h27.63c3.2,0,4.72,1.68,4.72,4.88v7.58c0,2.7-2.02,4.72-4.72,4.72Z" fill="#fff"/>
    <path d="M492.3,551.28h-9.1c-2.36,0-4.72-2.02-4.72-4.55v-111.03c0-2.7,2.02-4.72,4.72-4.72h9.27c2.36,0,4.72,2.19,4.72,4.55v111.2c0,2.36-2.53,4.55-4.89,4.55Z" fill="#fff"/>
    <path d="M590.18,551.28h-9.1c-3.37,0-5.56-2.02-6.74-4.88l-26.12-62.68c-1.01-2.36-2.02-2.19-2.02,0v62.68c0,2.86-2.02,4.88-4.89,4.88h-9.1c-2.7,0-4.72-1.85-4.72-4.72v-110.7c0-2.86,1.69-4.89,4.72-4.89h9.1c3.03,0,5.56,2.02,6.74,4.72l26.28,62.84c1.01,2.36,2.02,2.19,2.02,0v-62.67c0-2.7,2.02-4.89,4.72-4.89h9.1c2.87,0,4.89,1.69,4.89,4.72v110.86c0,2.36-2.36,4.72-4.89,4.72Z" fill="#fff"/>
    <path d="M678.3,546.57c0,2.7-2.19,4.72-4.88,4.72h-44.82c-2.53,0-4.89-2.02-4.89-4.72v-110.7c0-2.19,2.7-4.89,4.89-4.89h44.82c3.2,0,4.72,1.69,4.72,4.89v7.58c0,2.86-1.52,4.72-4.55,4.72h-26.45c-3.37,0-4.89,2.36-4.89,5.56v21.23c0,2.86,2.19,4.72,4.89,4.72h22.41c3.03,0,4.72,2.02,4.72,4.89v7.58c0,2.53-2.19,4.72-4.72,4.72h-22.58c-2.7,0-4.55,2.36-4.55,5.05v27.3c0,2.86,1.52,4.89,4.55,4.89h26.45c2.53,0,4.88,2.53,4.88,5.05v7.41Z" fill="#fff"/>
    <path d="M802.64,551.28h-8.93c-3.37,0-5.22-2.02-5.73-4.88l-3.37-16.34c-.67-3.03-2.87-5.05-5.9-5.05h-16.01c-2.7,0-5.22,2.86-5.56,5.05l-3.2,16.51c-.67,2.86-2.86,4.72-5.73,4.72h-8.76c-2.86,0-4.21-2.36-3.71-4.88l21.4-110.86c.51-3.03,2.36-4.55,5.56-4.55h16.01c3.37,0,5.22,1.69,5.9,4.89l22.24,110.53c.51,3.03-1.35,4.88-4.21,4.88ZM771.63,459.29c-.34-1.18-1.69-1.52-1.85.17l-7.92,44.14c-.67,2.86,1.52,4.38,4.21,4.38h9.6c3.03,0,4.55-1.51,4.04-4.72l-8.09-43.98Z" fill="#fff"/>
    <path d="M883.67,542.52c-5.56,7.08-13.98,10.78-24.77,10.62-10.78-.17-19.88-3.71-24.94-10.62-5.22-7.24-6.91-14.66-6.91-29.82v-76.83c0-2.53,2.02-4.89,4.72-4.89h8.93c3.03,0,4.89,1.86,4.89,4.89v79.69c0,14.32,3.87,20.22,13.31,20.22s13.14-5.73,13.14-20.22v-79.69c0-2.86,2.02-4.89,4.89-4.89h8.76c2.86,0,4.89,2.36,4.89,5.06v76.49c0,15.5-1.69,23.42-6.91,29.99Z" fill="#fff"/>
    <path d="M947.69,551.28h-24.93c-2.7,0-4.38-2.19-4.38-4.88v-110.53c0-2.19,2.02-4.89,4.38-4.89h24.93c23.59,0,34.88,12.13,34.88,37.57v44.99c0,25.78-11.29,37.74-34.88,37.74ZM963.87,473.78c0-19.04-4.72-25.61-17.69-25.61h-4.72c-2.7,0-4.55,1.85-4.55,4.55v77.5c0,2.19,2.02,3.88,4.04,3.88h5.22c12.97,0,17.69-6.74,17.69-25.44v-34.88Z" fill="#fff"/>
    <path d="M1025.02,551.28h-9.1c-2.36,0-4.72-2.02-4.72-4.55v-111.03c0-2.7,2.02-4.72,4.72-4.72h9.27c2.36,0,4.72,2.19,4.72,4.55v111.2c0,2.36-2.53,4.55-4.89,4.55Z" fill="#fff"/>
    <path d="M1117.52,541.51c-5.9,7.75-14.83,11.63-26.12,11.63s-20.89-4.21-25.95-11.63c-5.06-7.08-6.91-14.83-6.91-28.47v-43.64c0-13.65,2.02-22.07,6.91-28.64,5.56-7.58,14.32-11.46,25.95-11.46s20.89,4.04,26.12,11.46c4.89,7.08,6.91,14.99,6.91,28.64v43.64c0,13.65-2.02,21.9-6.91,28.47ZM1105.56,469.74c0-17.19-3.71-23.08-14.15-23.08s-14.15,5.9-14.15,23.08v43.13c0,17.02,3.37,22.91,14.15,22.91s14.15-5.9,14.15-22.91v-43.13Z" fill="#fff"/>
  </g>
</svg>