<?xml version="1.0" encoding="UTF-8"?>
<svg id="Layer_2" xmlns="http://www.w3.org/2000/svg" baseProfile="tiny" version="1.2" viewBox="0 0 423.77 178.59">
  <!-- Generator: Adobe Illustrator 29.6.1, SVG Export Plug-In . SVG Version: 2.1.1 Build 9)  -->
  <path d="M423.77,178.59c-59.75,0-73.93-30.97-87.64-60.92-2.84-6.21-5.76-12.58-9.14-18.89-.36.71-.76,1.48-1.17,2.29-7.66,14.99-23.6,46.19-31.69,59.51-6.05,9.96-15.36,15.44-25.5,15.04-10.2-.4-19.38-6.79-24.57-17.08-6.06-12.02-38.25-89.33-48.87-117.61-12.44,40.7-30.82,96.01-49.23,117.91-14.81,17.62-35.53,18.99-41.53,18.99-17.88,0-30.39-4.24-39.37-13.33-8.63-8.74-12.15-20.28-15.01-31.35-4.37-16.91,4.01-24.35,9.39-27.28,17.33-9.44,26.39-30.91,26.39-39.77,0-16.35-6.69-27.2-21.05-34.17-13.79-6.69-31.01-7.7-40.1-7.7h-.09c-.19,0-.35.14-.35.33v153.57H0V24.57C0,11.03,11.02,0,24.57,0h.11c13.62,0,33.43,1.76,50.67,10.13,22.71,11.02,34.71,30.37,34.71,55.98,0,18.55-14.02,46.16-36.83,59.8.07.34.16.73.27,1.19,5.08,19.64,8.82,26.51,30.91,26.51,2.39,0,14.7-.5,22.98-10.34,11.76-13.99,26.99-51.53,45.27-111.58.99-3.25,1.64-5.4,2.06-6.64,3.55-10.68,11.5-17.21,20.77-17.08,7.14.11,16.1,4.75,19.88,17.42,3.89,13.08,43.9,109.48,50.34,122.26,1.28,2.53,2.91,3.73,3.88,3.77.86.02,2.37-1.01,3.83-3.4,7.63-12.56,23.29-43.22,30.82-57.96,1.62-3.17,2.89-5.65,3.65-7.12,4.18-8.06,10.93-12.79,18.53-12.98,7.47-.19,14.3,4.04,18.71,11.59,5.24,8.97,9.21,17.65,13.06,26.04,13.36,29.17,21.42,46.77,65.61,46.77v24.24ZM329.97,93.17h0s0,0,0,0Z"/>
</svg>