<?xml version="1.0" encoding="UTF-8"?>
<svg id="Layer_2" xmlns="http://www.w3.org/2000/svg" baseProfile="tiny" version="1.2" viewBox="0 0 1749.05 724.26">
  <!-- Generator: Adobe Illustrator 29.6.1, SVG Export Plug-In . SVG Version: 2.1.1 Build 9)  -->
  <path d="M63.21,724.26H0V83.54C0,37.51,37.48.03,83.56,0h.46c54.83,0,134.42,7.02,203.13,40.35,87.75,42.56,134.13,117.43,134.13,216.49,0,35.97-15.03,82.86-40.22,125.44-20.4,34.49-56.52,82.03-112.77,112.66-.76.41-1.04.68-1.07.71h0s-1.95,4.58,2.14,20.39c22.44,86.79,43.15,124.82,147.32,124.82,11.43,0,70.45-2.41,110.38-49.92,50.71-60.34,115.47-219.21,192.49-472.19,4.09-13.44,6.8-22.32,8.44-27.26,12.11-36.43,38.26-58.81,68.34-58.29,29.85.47,54.17,22.58,65.06,59.14,16.37,54.98,184.24,459.62,211.26,513.23,8,15.88,20.1,25.64,32.37,26.13,11.81.48,23.51-7.81,32.92-23.31,32.17-52.99,97.75-181.35,129.26-243.03,6.74-13.2,12-23.49,15.16-29.58,14.16-27.31,36.38-43.32,60.95-43.93,24.15-.57,46.39,13.6,61.2,38.95,21.38,36.6,37.76,72.38,53.61,106.98,54.82,119.7,94.42,206.19,290.95,206.19v63.21c-237.11,0-291.18-118.07-348.42-243.08-15.2-33.2-30.92-67.53-50.72-101.42-2.11-3.61-3.94-5.65-5.14-6.74-1.42,1.31-3.72,3.95-6.32,8.96-3.12,6.02-8.32,16.18-14.98,29.23-31.86,62.35-98.14,192.1-131.52,247.08-21.55,35.49-54.05,55.06-89.44,53.66-35.56-1.4-67.83-24.15-86.32-60.84-28.64-56.83-197.89-464.84-215.39-523.64-1.89-6.37-4.13-10.3-5.74-12.45-1.94,2.17-4.72,6.37-7.09,13.5-1.39,4.17-4.28,13.69-7.95,25.73-29.64,97.36-119.83,393.63-204.57,494.45-56.51,67.24-135.81,72.46-158.77,72.46-69.2,0-117.11-15.88-150.76-49.97-32.69-33.11-46.46-78.55-57.75-122.24-14.26-55.17,8.38-80.72,29.9-92.43,74.36-40.49,120.01-133.64,120.01-182.6,0-75.25-32.22-127.47-98.51-159.62-60.95-29.56-136.01-34.01-175.58-34.01h-.38c-11.25,0-20.4,9.13-20.4,20.34v640.72Z" fill="#191717"/>
  <g>
    <path d="M2994.94,619.4h-9.94c-3.54,0-5.39-1.68-6.4-4.88l-12.81-39.59c-1.18-3.37-2.53-4.72-6.23-4.72h-1.69c-3.2,0-4.89,1.52-4.89,4.72v39.76c0,2.7-2.02,4.72-4.72,4.72h-9.27c-2.86,0-4.55-2.02-4.55-4.72v-110.7c0-2.53,2.19-4.89,4.72-4.89h24.6c22.41,0,34.37,11.96,34.37,34.37,0,13.48-4.04,23.25-12.3,29.15-2.86,2.02-3.54,3.2-2.7,6.07l14.99,45.83c.84,2.53-.67,4.88-3.2,4.88ZM2959.89,516.29h-2.02c-2.7,0-4.89,2.19-4.89,4.88v26.96c0,2.7,2.19,4.89,4.89,4.89h2.02c14.15,0,19.04-4.89,19.04-18.53s-4.89-18.2-19.04-18.2Z" fill="#fff"/>
    <path d="M3038.24,619.4h-9.1c-2.36,0-4.72-2.02-4.72-4.55v-111.03c0-2.7,2.02-4.72,4.72-4.72h9.27c2.36,0,4.72,2.19,4.72,4.55v111.2c0,2.36-2.53,4.55-4.89,4.55Z" fill="#fff"/>
    <path d="M3102.76,619.4h-24.94c-2.7,0-4.38-2.19-4.38-4.88v-110.53c0-2.19,2.02-4.89,4.38-4.89h24.94c23.59,0,34.88,12.13,34.88,37.57v44.99c0,25.78-11.29,37.74-34.88,37.74ZM3118.94,541.9c0-19.04-4.72-25.61-17.69-25.61h-4.72c-2.7,0-4.55,1.85-4.55,4.55v77.5c0,2.19,2.02,3.88,4.04,3.88h5.22c12.97,0,17.69-6.74,17.69-25.44v-34.88Z" fill="#fff"/>
    <path d="M3223.56,619.4h-9.1c-4.21,0-3.88-3.2-5.05-3.2-.67,0-1.52.67-2.19,1.18-4.04,2.7-8.43,3.88-14.15,3.88-11.12,0-20.39-5.39-24.94-14.15-4.04-7.92-5.22-15.16-5.22-32.18v-33.02c0-19.71,1.18-26.12,6.74-33.36,5.73-7.41,14.66-11.29,25.61-11.29,22.07,0,32.69,15.67,32.69,36.39,0,3.03-1.85,4.72-4.72,4.72h-9.1c-3.03,0-4.55-2.19-4.72-4.89-.51-12.3-5.39-18.87-14.32-18.87-10.11,0-13.65,6.4-13.65,23.76v36.56c0,21.57,3.88,28.98,14.66,28.98,9.6,0,13.65-7.08,13.65-23.25,0-3.2-1.18-5.73-4.89-5.73h-5.56c-2.86,0-4.72-2.19-4.72-4.89v-5.39c0-3.03,1.69-5.05,4.72-5.05h24.26c2.36,0,5.06,2.19,5.06,4.88v50.21c0,2.86-2.7,4.72-5.06,4.72Z" fill="#fff"/>
    <path d="M3311.85,614.68c0,2.7-2.19,4.72-4.89,4.72h-44.82c-2.53,0-4.89-2.02-4.89-4.72v-110.7c0-2.19,2.7-4.89,4.89-4.89h44.82c3.2,0,4.72,1.69,4.72,4.89v7.58c0,2.86-1.52,4.72-4.55,4.72h-26.45c-3.37,0-4.89,2.36-4.89,5.56v21.23c0,2.86,2.19,4.72,4.89,4.72h22.41c3.03,0,4.72,2.02,4.72,4.89v7.58c0,2.53-2.19,4.72-4.72,4.72h-22.58c-2.7,0-4.55,2.36-4.55,5.05v27.3c0,2.86,1.52,4.89,4.55,4.89h26.45c2.53,0,4.89,2.53,4.89,5.05v7.41Z" fill="#fff"/>
    <path d="M3386.31,619.4h-46.17c-2.53,0-4.72-2.02-4.72-4.72v-110.7c0-2.7,1.85-4.89,4.72-4.89h8.93c2.86,0,5.06,1.86,5.06,4.89v93.34c0,2.86,1.68,4.89,4.55,4.89h27.63c3.2,0,4.72,1.68,4.72,4.88v7.58c0,2.7-2.02,4.72-4.72,4.72Z" fill="#fff"/>
    <path d="M3426.75,619.4h-9.1c-2.36,0-4.72-2.02-4.72-4.55v-111.03c0-2.7,2.02-4.72,4.72-4.72h9.27c2.36,0,4.72,2.19,4.72,4.55v111.2c0,2.36-2.53,4.55-4.89,4.55Z" fill="#fff"/>
    <path d="M3524.63,619.4h-9.1c-3.37,0-5.56-2.02-6.74-4.88l-26.12-62.68c-1.01-2.36-2.02-2.19-2.02,0v62.68c0,2.86-2.02,4.88-4.89,4.88h-9.1c-2.7,0-4.72-1.85-4.72-4.72v-110.7c0-2.86,1.69-4.89,4.72-4.89h9.1c3.03,0,5.56,2.02,6.74,4.72l26.28,62.84c1.01,2.36,2.02,2.19,2.02,0v-62.67c0-2.7,2.02-4.89,4.72-4.89h9.1c2.87,0,4.89,1.69,4.89,4.72v110.86c0,2.36-2.36,4.72-4.89,4.72Z" fill="#fff"/>
    <path d="M3612.75,614.68c0,2.7-2.19,4.72-4.88,4.72h-44.82c-2.53,0-4.89-2.02-4.89-4.72v-110.7c0-2.19,2.7-4.89,4.89-4.89h44.82c3.2,0,4.72,1.69,4.72,4.89v7.58c0,2.86-1.52,4.72-4.55,4.72h-26.45c-3.37,0-4.89,2.36-4.89,5.56v21.23c0,2.86,2.19,4.72,4.89,4.72h22.41c3.03,0,4.72,2.02,4.72,4.89v7.58c0,2.53-2.19,4.72-4.72,4.72h-22.58c-2.7,0-4.55,2.36-4.55,5.05v27.3c0,2.86,1.52,4.89,4.55,4.89h26.45c2.53,0,4.88,2.53,4.88,5.05v7.41Z" fill="#fff"/>
    <path d="M3737.09,619.4h-8.93c-3.37,0-5.22-2.02-5.73-4.88l-3.37-16.34c-.67-3.03-2.87-5.05-5.9-5.05h-16.01c-2.7,0-5.22,2.86-5.56,5.05l-3.2,16.51c-.67,2.86-2.86,4.72-5.73,4.72h-8.76c-2.86,0-4.21-2.36-3.71-4.88l21.4-110.86c.51-3.03,2.36-4.55,5.56-4.55h16.01c3.37,0,5.22,1.69,5.9,4.89l22.24,110.53c.51,3.03-1.35,4.88-4.21,4.88ZM3706.08,527.41c-.34-1.18-1.69-1.52-1.85.17l-7.92,44.14c-.67,2.86,1.52,4.38,4.21,4.38h9.6c3.03,0,4.55-1.51,4.04-4.72l-8.09-43.98Z" fill="#fff"/>
    <path d="M3818.12,610.64c-5.56,7.08-13.98,10.78-24.77,10.62-10.78-.17-19.88-3.71-24.94-10.62-5.22-7.24-6.91-14.66-6.91-29.82v-76.83c0-2.53,2.02-4.89,4.72-4.89h8.93c3.03,0,4.89,1.86,4.89,4.89v79.69c0,14.32,3.87,20.22,13.31,20.22s13.14-5.73,13.14-20.22v-79.69c0-2.86,2.02-4.89,4.89-4.89h8.76c2.86,0,4.89,2.36,4.89,5.06v76.49c0,15.5-1.69,23.42-6.91,29.99Z" fill="#fff"/>
    <path d="M3882.14,619.4h-24.93c-2.7,0-4.38-2.19-4.38-4.88v-110.53c0-2.19,2.02-4.89,4.38-4.89h24.93c23.59,0,34.88,12.13,34.88,37.57v44.99c0,25.78-11.29,37.74-34.88,37.74ZM3898.32,541.9c0-19.04-4.72-25.61-17.69-25.61h-4.72c-2.7,0-4.55,1.85-4.55,4.55v77.5c0,2.19,2.02,3.88,4.04,3.88h5.22c12.97,0,17.69-6.74,17.69-25.44v-34.88Z" fill="#fff"/>
    <path d="M3959.47,619.4h-9.1c-2.36,0-4.72-2.02-4.72-4.55v-111.03c0-2.7,2.02-4.72,4.72-4.72h9.27c2.36,0,4.72,2.19,4.72,4.55v111.2c0,2.36-2.53,4.55-4.89,4.55Z" fill="#fff"/>
    <path d="M4051.97,609.63c-5.9,7.75-14.83,11.63-26.12,11.63s-20.89-4.21-25.95-11.63c-5.06-7.08-6.91-14.83-6.91-28.47v-43.64c0-13.65,2.02-22.07,6.91-28.64,5.56-7.58,14.32-11.46,25.95-11.46s20.89,4.04,26.12,11.46c4.89,7.08,6.91,14.99,6.91,28.64v43.64c0,13.65-2.02,21.9-6.91,28.47ZM4040.01,537.85c0-17.19-3.71-23.08-14.15-23.08s-14.15,5.9-14.15,23.08v43.13c0,17.02,3.37,22.91,14.15,22.91s14.15-5.9,14.15-22.91v-43.13Z" fill="#fff"/>
  </g>
</svg>